<?xml version="1.0" encoding="utf-8"?>
<!-- Generator: Adobe Illustrator 23.0.0, SVG Export Plug-In . SVG Version: 6.00 Build 0)  -->
<svg version="1.1" id="Layer_1" xmlns="http://www.w3.org/2000/svg" xmlns:xlink="http://www.w3.org/1999/xlink" x="0px" y="0px"
	 viewBox="0 0 1280.02 799.99" style="enable-background:new 0 0 1280.02 799.99;" xml:space="preserve">
<g>
	<path d="M532.1,279.56v251.81h-92.77V279.56c0-7.24-2.61-13.47-7.82-18.69c-5.21-5.21-11.44-7.82-18.69-7.82H240.53v278.32h-92.77
		V160.28l265.07,0.27v-0.27c32.87,0,60.96,11.66,84.29,34.99C520.44,218.59,532.1,246.69,532.1,279.56z M386.32,531.37h-92.77
		V292.81h92.77V531.37z"/>
	<path d="M789.22,341.58c13.61,20.32,20.41,43.83,20.41,70.51c0,32.87-10.34,60.97-31.01,84.29
		c-20.68,23.33-45.68,34.99-75.01,34.99H557.81V438.6h132.53c7.24,0,13.47-2.61,18.69-7.82c5.21-5.21,7.82-11.44,7.82-18.69
		c0-7.24-2.61-13.47-7.82-18.69c-5.21-5.21-11.44-7.82-18.69-7.82h-132.8l0.26-92.77h139.16c5.48,0,10.16-1.94,14.05-5.83
		c3.88-3.88,5.83-8.57,5.83-14.05c0-5.48-1.95-10.16-5.83-14.05c-3.89-3.88-8.57-5.83-14.05-5.83H557.81v-92.77h152.41
		c27.39,0,50.8,11,70.24,33c19.44,22,29.16,48.55,29.16,79.65C809.63,298.91,802.82,321.8,789.22,341.58z"/>
</g>
</svg>
